<svg width="1438" height="796" viewBox="0 0 1438 796" fill="none" xmlns="http://www.w3.org/2000/svg">
<g opacity="0.05">
<path d="M1438 -322H-1.99988V1118H1438V-322Z" stroke="#B3B3B3" stroke-width="1.44"/>
<path d="M1368.93 -252.933H67.0668V1048.93H1368.93V-252.933Z" stroke="#B3B3B3" stroke-width="1.44"/>
<path d="M1303.81 -187.814H132.187V983.812H1303.81V-187.814Z" stroke="#B3B3B3" stroke-width="1.44"/>
<path d="M1242.64 -126.641H193.36V922.639H1242.64V-126.641Z" stroke="#B3B3B3" stroke-width="1.44"/>
<path d="M1185.41 -69.4131H250.587V865.413H1185.41V-69.4131Z" stroke="#B3B3B3" stroke-width="1.44"/>
<path d="M1132.13 -16.1328H303.867V812.134H1132.13V-16.1328Z" stroke="#B3B3B3" stroke-width="1.44"/>
<path d="M1082.8 33.2002H353.2V762.8H1082.8V33.2002Z" stroke="#B3B3B3" stroke-width="1.44"/>
<path d="M1037.41 78.5859H398.587V717.413H1037.41V78.5859Z" stroke="#B3B3B3" stroke-width="1.44"/>
<path d="M995.973 120.027H440.027V675.974H995.973V120.027Z" stroke="#B3B3B3" stroke-width="1.44"/>
<path d="M958.48 157.521H477.52V638.48H958.48V157.521Z" stroke="#B3B3B3" stroke-width="1.44"/>
<path d="M924.933 191.066H511.067V604.933H924.933V191.066Z" stroke="#B3B3B3" stroke-width="1.44"/>
<path d="M895.333 220.667H540.667V575.334H895.333V220.667Z" stroke="#B3B3B3" stroke-width="1.44"/>
<path d="M869.68 246.32H566.32V549.68H869.68V246.32Z" stroke="#B3B3B3" stroke-width="1.44"/>
<path d="M847.973 268.026H588.027V527.973H847.973V268.026Z" stroke="#B3B3B3" stroke-width="1.44"/>
<path d="M830.213 285.787H605.787V510.214H830.213V285.787Z" stroke="#B3B3B3" stroke-width="1.44"/>
<path d="M816.4 299.6H619.6V496.4H816.4V299.6Z" stroke="#B3B3B3" stroke-width="1.44"/>
<path d="M806.533 309.467H629.467V486.533H806.533V309.467Z" stroke="#B3B3B3" stroke-width="1.44"/>
<path d="M800.613 315.388H635.387V480.614H800.613V315.388Z" stroke="#B3B3B3" stroke-width="1.44"/>
<path d="M798.64 317.36H637.36V478.64H798.64V317.36Z" stroke="#B3B3B3" stroke-width="1.44"/>
<path d="M637.36 478.641L-1.99986 1118" stroke="#B3B3B3" stroke-width="1.44"/>
<path d="M642.921 478.641L69.326 1118" stroke="#B3B3B3" stroke-width="1.44"/>
<path d="M648.483 478.641L134.551 1118" stroke="#B3B3B3" stroke-width="1.44"/>
<path d="M654.044 478.641L194.792 1118" stroke="#B3B3B3" stroke-width="1.44"/>
<path d="M659.605 478.641L250.935 1118" stroke="#B3B3B3" stroke-width="1.44"/>
<path d="M665.167 478.641L303.688 1118" stroke="#B3B3B3" stroke-width="1.44"/>
<path d="M670.728 478.641L353.635 1118" stroke="#B3B3B3" stroke-width="1.44"/>
<path d="M676.29 478.641L401.257 1118" stroke="#B3B3B3" stroke-width="1.44"/>
<path d="M681.851 478.641L446.962 1118" stroke="#B3B3B3" stroke-width="1.44"/>
<path d="M687.413 478.641L491.099 1118" stroke="#B3B3B3" stroke-width="1.44"/>
<path d="M692.974 478.641L533.972 1118" stroke="#B3B3B3" stroke-width="1.44"/>
<path d="M698.535 478.641L575.853 1118" stroke="#B3B3B3" stroke-width="1.44"/>
<path d="M704.097 478.641L616.986 1118" stroke="#B3B3B3" stroke-width="1.44"/>
<path d="M709.658 478.641L657.597 1118" stroke="#B3B3B3" stroke-width="1.44"/>
<path d="M715.219 478.641L697.9 1118" stroke="#B3B3B3" stroke-width="1.44"/>
<path d="M720.781 478.641L738.101 1118" stroke="#B3B3B3" stroke-width="1.44"/>
<path d="M726.342 478.641L778.403 1118" stroke="#B3B3B3" stroke-width="1.44"/>
<path d="M731.904 478.641L819.015 1118" stroke="#B3B3B3" stroke-width="1.44"/>
<path d="M737.465 478.641L860.147 1118" stroke="#B3B3B3" stroke-width="1.44"/>
<path d="M743.026 478.641L902.028 1118" stroke="#B3B3B3" stroke-width="1.44"/>
<path d="M748.588 478.641L944.901 1118" stroke="#B3B3B3" stroke-width="1.44"/>
<path d="M754.149 478.641L989.038 1118" stroke="#B3B3B3" stroke-width="1.44"/>
<path d="M759.71 478.641L1034.74 1118" stroke="#B3B3B3" stroke-width="1.44"/>
<path d="M765.272 478.641L1082.37 1118" stroke="#B3B3B3" stroke-width="1.44"/>
<path d="M770.833 478.641L1132.31 1118" stroke="#B3B3B3" stroke-width="1.44"/>
<path d="M776.394 478.641L1185.07 1118" stroke="#B3B3B3" stroke-width="1.44"/>
<path d="M781.956 478.641L1241.21 1118" stroke="#B3B3B3" stroke-width="1.44"/>
<path d="M787.517 478.641L1301.45 1118" stroke="#B3B3B3" stroke-width="1.44"/>
<path d="M793.079 478.641L1366.67 1118" stroke="#B3B3B3" stroke-width="1.44"/>
<path d="M798.64 478.641L1438 1118" stroke="#B3B3B3" stroke-width="1.44"/>
<path d="M637.36 317.36L-1.99998 -322" stroke="#B3B3B3" stroke-width="1.44"/>
<path d="M637.36 322.921L-2.00006 -250.674" stroke="#B3B3B3" stroke-width="1.44"/>
<path d="M637.36 328.482L-1.99993 -185.449" stroke="#B3B3B3" stroke-width="1.44"/>
<path d="M637.36 334.044L-1.99996 -125.208" stroke="#B3B3B3" stroke-width="1.44"/>
<path d="M637.36 339.604L-2.00011 -69.0665" stroke="#B3B3B3" stroke-width="1.44"/>
<path d="M637.36 345.166L-1.99993 -16.3125" stroke="#B3B3B3" stroke-width="1.44"/>
<path d="M637.36 350.729L-2.0001 33.6352" stroke="#B3B3B3" stroke-width="1.44"/>
<path d="M637.36 356.288L-1.99993 81.2555" stroke="#B3B3B3" stroke-width="1.44"/>
<path d="M637.36 361.85L-1.99994 126.96" stroke="#B3B3B3" stroke-width="1.44"/>
<path d="M637.36 367.412L-2.00008 171.098" stroke="#B3B3B3" stroke-width="1.44"/>
<path d="M637.36 372.975L-1.99996 213.973" stroke="#B3B3B3" stroke-width="1.44"/>
<path d="M637.36 378.533L-1.99994 255.851" stroke="#B3B3B3" stroke-width="1.44"/>
<path d="M637.36 384.096L-2.00003 296.985" stroke="#B3B3B3" stroke-width="1.44"/>
<path d="M637.36 389.658L-1.99997 337.597" stroke="#B3B3B3" stroke-width="1.44"/>
<path d="M637.36 395.22L-2.00011 377.9" stroke="#B3B3B3" stroke-width="1.44"/>
<path d="M637.36 400.779L-2.00011 418.099" stroke="#B3B3B3" stroke-width="1.44"/>
<path d="M637.36 406.342L-1.99997 458.403" stroke="#B3B3B3" stroke-width="1.44"/>
<path d="M637.36 411.903L-2.00003 499.014" stroke="#B3B3B3" stroke-width="1.44"/>
<path d="M637.36 417.466L-1.99994 540.148" stroke="#B3B3B3" stroke-width="1.44"/>
<path d="M637.36 423.025L-1.99996 582.027" stroke="#B3B3B3" stroke-width="1.44"/>
<path d="M637.36 428.587L-2.00008 624.901" stroke="#B3B3B3" stroke-width="1.44"/>
<path d="M637.36 434.149L-1.99994 669.039" stroke="#B3B3B3" stroke-width="1.44"/>
<path d="M637.36 439.709L-2.00006 714.742" stroke="#B3B3B3" stroke-width="1.44"/>
<path d="M637.36 445.271L-1.99998 762.365" stroke="#B3B3B3" stroke-width="1.44"/>
<path d="M637.36 450.833L-1.99993 812.312" stroke="#B3B3B3" stroke-width="1.44"/>
<path d="M637.36 456.393L-2.00011 865.064" stroke="#B3B3B3" stroke-width="1.44"/>
<path d="M637.36 461.955L-1.99996 921.207" stroke="#B3B3B3" stroke-width="1.44"/>
<path d="M637.36 467.517L-1.99993 981.448" stroke="#B3B3B3" stroke-width="1.44"/>
<path d="M637.36 473.078L-2.00006 1046.67" stroke="#B3B3B3" stroke-width="1.44"/>
<path d="M637.36 478.639L-1.99998 1118" stroke="#B3B3B3" stroke-width="1.44"/>
<path d="M798.64 317.36L1438 -322" stroke="#B3B3B3" stroke-width="1.44"/>
<path d="M793.079 317.36L1366.67 -322" stroke="#B3B3B3" stroke-width="1.44"/>
<path d="M787.517 317.36L1301.45 -322" stroke="#B3B3B3" stroke-width="1.44"/>
<path d="M781.956 317.36L1241.21 -322" stroke="#B3B3B3" stroke-width="1.44"/>
<path d="M776.394 317.36L1185.07 -322" stroke="#B3B3B3" stroke-width="1.44"/>
<path d="M770.833 317.36L1132.31 -322" stroke="#B3B3B3" stroke-width="1.44"/>
<path d="M765.272 317.36L1082.37 -322" stroke="#B3B3B3" stroke-width="1.44"/>
<path d="M759.71 317.36L1034.74 -322" stroke="#B3B3B3" stroke-width="1.44"/>
<path d="M754.149 317.36L989.038 -322" stroke="#B3B3B3" stroke-width="1.44"/>
<path d="M748.588 317.36L944.901 -322" stroke="#B3B3B3" stroke-width="1.44"/>
<path d="M743.026 317.36L902.028 -322" stroke="#B3B3B3" stroke-width="1.44"/>
<path d="M737.465 317.36L860.147 -322" stroke="#B3B3B3" stroke-width="1.44"/>
<path d="M731.904 317.36L819.015 -322" stroke="#B3B3B3" stroke-width="1.44"/>
<path d="M726.342 317.36L778.403 -322" stroke="#B3B3B3" stroke-width="1.44"/>
<path d="M720.781 317.36L738.101 -322" stroke="#B3B3B3" stroke-width="1.44"/>
<path d="M715.219 317.36L697.9 -322" stroke="#B3B3B3" stroke-width="1.44"/>
<path d="M709.658 317.36L657.597 -322" stroke="#B3B3B3" stroke-width="1.44"/>
<path d="M704.097 317.36L616.986 -322" stroke="#B3B3B3" stroke-width="1.44"/>
<path d="M698.535 317.36L575.853 -322" stroke="#B3B3B3" stroke-width="1.44"/>
<path d="M692.974 317.36L533.972 -322" stroke="#B3B3B3" stroke-width="1.44"/>
<path d="M687.413 317.36L491.099 -322" stroke="#B3B3B3" stroke-width="1.44"/>
<path d="M681.851 317.36L446.962 -322" stroke="#B3B3B3" stroke-width="1.44"/>
<path d="M676.29 317.36L401.257 -322" stroke="#B3B3B3" stroke-width="1.44"/>
<path d="M670.728 317.36L353.635 -322" stroke="#B3B3B3" stroke-width="1.44"/>
<path d="M665.167 317.36L303.688 -322" stroke="#B3B3B3" stroke-width="1.44"/>
<path d="M659.606 317.36L250.935 -322" stroke="#B3B3B3" stroke-width="1.44"/>
<path d="M654.044 317.36L194.792 -322" stroke="#B3B3B3" stroke-width="1.44"/>
<path d="M648.483 317.36L134.551 -322" stroke="#B3B3B3" stroke-width="1.44"/>
<path d="M642.921 317.36L69.326 -322" stroke="#B3B3B3" stroke-width="1.44"/>
<path d="M637.36 317.36L-1.99986 -322" stroke="#B3B3B3" stroke-width="1.44"/>
<path d="M798.64 478.639L1438 1118" stroke="#B3B3B3" stroke-width="1.44"/>
<path d="M798.64 473.078L1438 1046.67" stroke="#B3B3B3" stroke-width="1.44"/>
<path d="M798.64 467.517L1438 981.448" stroke="#B3B3B3" stroke-width="1.44"/>
<path d="M798.64 461.955L1438 921.207" stroke="#B3B3B3" stroke-width="1.44"/>
<path d="M798.64 456.394L1438 865.065" stroke="#B3B3B3" stroke-width="1.44"/>
<path d="M798.64 450.833L1438 812.312" stroke="#B3B3B3" stroke-width="1.44"/>
<path d="M798.64 445.271L1438 762.365" stroke="#B3B3B3" stroke-width="1.44"/>
<path d="M798.64 439.711L1438 714.744" stroke="#B3B3B3" stroke-width="1.44"/>
<path d="M798.64 434.149L1438 669.039" stroke="#B3B3B3" stroke-width="1.44"/>
<path d="M798.64 428.587L1438 624.901" stroke="#B3B3B3" stroke-width="1.44"/>
<path d="M798.64 423.025L1438 582.027" stroke="#B3B3B3" stroke-width="1.44"/>
<path d="M798.64 417.466L1438 540.148" stroke="#B3B3B3" stroke-width="1.44"/>
<path d="M798.64 411.903L1438 499.014" stroke="#B3B3B3" stroke-width="1.44"/>
<path d="M798.64 406.342L1438 458.403" stroke="#B3B3B3" stroke-width="1.44"/>
<path d="M798.64 400.779L1438 418.099" stroke="#B3B3B3" stroke-width="1.44"/>
<path d="M798.64 395.22L1438 377.9" stroke="#B3B3B3" stroke-width="1.44"/>
<path d="M798.64 389.658L1438 337.597" stroke="#B3B3B3" stroke-width="1.44"/>
<path d="M798.64 384.096L1438 296.985" stroke="#B3B3B3" stroke-width="1.44"/>
<path d="M798.64 378.533L1438 255.851" stroke="#B3B3B3" stroke-width="1.44"/>
<path d="M798.64 372.975L1438 213.973" stroke="#B3B3B3" stroke-width="1.44"/>
<path d="M798.64 367.412L1438 171.098" stroke="#B3B3B3" stroke-width="1.44"/>
<path d="M798.64 361.85L1438 126.96" stroke="#B3B3B3" stroke-width="1.44"/>
<path d="M798.64 356.29L1438 81.2574" stroke="#B3B3B3" stroke-width="1.44"/>
<path d="M798.64 350.728L1438 33.6342" stroke="#B3B3B3" stroke-width="1.44"/>
<path d="M798.64 345.166L1438 -16.3125" stroke="#B3B3B3" stroke-width="1.44"/>
<path d="M798.64 339.604L1438 -69.0665" stroke="#B3B3B3" stroke-width="1.44"/>
<path d="M798.64 334.044L1438 -125.208" stroke="#B3B3B3" stroke-width="1.44"/>
<path d="M798.64 328.482L1438 -185.449" stroke="#B3B3B3" stroke-width="1.44"/>
<path d="M798.64 322.921L1438 -250.674" stroke="#B3B3B3" stroke-width="1.44"/>
<path d="M798.64 317.36L1438 -322" stroke="#B3B3B3" stroke-width="1.44"/>
</g>
</svg>
